<svg xmlns="http://www.w3.org/2000/svg" viewBox="0 0 24 24" width="24px" height="24px" x="0" y="0" preserveAspectRatio="xMinYMin meet" class="artdeco-icon" focusable="false"><path d="M8,1A10.89,10.89,0,0,1,2.87,3,1,1,0,0,0,2,4V9.33a5.67,5.67,0,0,0,2.91,5L8,16l3.09-1.71a5.67,5.67,0,0,0,2.91-5V4a1,1,0,0,0-.87-1A10.89,10.89,0,0,1,8,1ZM4,4.7A12.92,12.92,0,0,0,8,3.26a12.61,12.61,0,0,0,3.15,1.25L4.45,11.2A3.66,3.66,0,0,1,4,9.46V4.7Zm6.11,8L8,13.84,5.89,12.66A3.65,3.65,0,0,1,5,11.92l7-7V9.46A3.67,3.67,0,0,1,10.11,12.66Z" class="small-icon" style="fill-opacity: 1"/></svg>